<?xml version="1.0" encoding="utf-8"?>
<?xml-stylesheet type="text/xsl" href="rss1.xsl"?>
<rss version="2.0" xmlns:atom="http://www.w3.org/2005/Atom" xmlns:content="http://purl.org/rss/1.0/modules/content/" xmlns:dc="http://purl.org/dc/elements/1.1/" xmlns:media="http://search.yahoo.com/mrss/">
<channel>
 <title>Getty</title>
 <link>http://www.gettyimg.com/</link>
 <atom:link href="http://www.gettyimg.com/" rel="self" type="application/rss+xml" />

 
                <item>
                <title><![CDATA[【Cinema Center】SERIES - Queer As Folk US Season 5 (2000) [1080p AMZN WEBRip DD+ 5.1]]]></title>
                <link><![CDATA[https://sharemania.us/threads/queer-as-folk-us-season-5-2000-1080p-amzn-webrip-dd-5-1.248704/]]></link>
                <description><![CDATA[<article>
<blockquote class="messageText SelectQuoteContainer ugc baseHtml">
<div style="text-align: center"><img src="https://i.imgur.com/j1hm2F4.jpeg" class="bbCodeImage LbImage" alt="[​IMG]" data-url="https://i.imgur.com/j1hm2F4.jpeg" style=""> <br>
<br>
<b><img src="https://i.imgur.com/NvDTQjE.png" class="bbCodeImage LbImage" alt="[​IMG]" data-url="https://i.imgur.com/NvDTQjE.png" style=""> </b>8.5 • Average Runtime: 47m • 2000 • TV-MA<br>
<i><b>Description:</b></i><br>
Brash humor and genuine emotion make up this series revolving around the lives, loves, ambitions, careers and friendships of a group of gay men and women living on Liberty Avenue in contemporary Pittsburgh, PA.<br>
<b><i>Details:</i></b><br>
<i><b>Creators:</b> Ron Cowen, Daniel Lipman, Russell T. Davies</i><br>
<i><b>Starring:</b> Gale Harold, Hal Sparks, Randy Harrison</i><br>
<i><b>Genres:</b> Drama, Romance</i><br>
<i><b>Audio Language(s):</b> English</i><br>
<i><b>Subtitles:</b> English [CC]</i><br>
<i><b>Maturity Rating:</b> TV-MA</i><br>
<i><b>Content Advisory: </b>Sex &amp; Nudity, Profanity, Alcohol, Drugs, &amp; Smoking</i><br>
<i><b>Source:</b><br>
<b><img src="https://i.imgur.com/UquWuUD.png" class="bbCodeImage LbImage" alt="[​IMG]" data-url="https://i.imgur.com/UquWuUD.png" style=""></b><br>
<b><b><i>Release Name:</i></b><br>
Queer.as.Folk.US.S05.1080p.AMZN.WEBRip.DDP5.1.x264-NTb[rartv]</b></i><br>
<div class="ToggleTriggerAnchor bbCodeSpoilerContainer">
<button type="button" class="button bbCodeSpoilerButton ToggleTrigger Tooltip JsOnly" data-target="> .SpoilerTarget"><span>Spoiler: <span class="SpoilerTitle">Thumbs</span></span></button>
<div class="SpoilerTarget bbCodeSpoilerText"><i><b><img src="https://i.imgur.com/R875vRk.jpeg" class="bbCodeImage LbImage" alt="[​IMG]" data-url="https://i.imgur.com/R875vRk.jpeg" style=""><br>
<img src="https://i.imgur.com/uGLZ6bw.jpeg" class="bbCodeImage LbImage" alt="[​IMG]" data-url="https://i.imgur.com/uGLZ6bw.jpeg" style=""><br>
<img src="https://i.imgur.com/mkOsD6f.jpeg" class="bbCodeImage LbImage" alt="[​IMG]" data-url="https://i.imgur.com/mkOsD6f.jpeg" style=""><br>
<img src="https://i.imgur.com/rqlMfWR.jpeg" class="bbCodeImage LbImage" alt="[​IMG]" data-url="https://i.imgur.com/rqlMfWR.jpeg" style=""><br>
<img src="https://i.imgur.com/w0JAMTL.png" class="bbCodeImage LbImage" alt="[​IMG]" data-url="https://i.imgur.com/w0JAMTL.png" style=""><br>
<img src="https://i.imgur.com/Dh2yf1K.jpeg" class="bbCodeImage LbImage" alt="[​IMG]" data-url="https://i.imgur.com/Dh2yf1K.jpeg" style=""><br>
<img src="https://i.imgur.com/odYHB1Q.jpeg" class="bbCodeImage LbImage" alt="[​IMG]" data-url="https://i.imgur.com/odYHB1Q.jpeg" style=""><br>
<img src="https://i.imgur.com/F7VODpo.jpeg" class="bbCodeImage LbImage" alt="[​IMG]" data-url="https://i.imgur.com/F7VODpo.jpeg" style=""><br>
<img src="https://i.imgur.com/a0JwArO.jpeg" class="bbCodeImage LbImage" alt="[​IMG]" data-url="https://i.imgur.com/a0JwArO.jpeg" style=""><br>
<img src="https://i.imgur.com/nSTGsyg.png" class="bbCodeImage LbImage" alt="[​IMG]" data-url="https://i.imgur.com/nSTGsyg.png" style=""><br>
<img src="https://i.imgur.com/4toHNWB.png" class="bbCodeImage LbImage" alt="[​IMG]" data-url="https://i.imgur.com/4toHNWB.png" style=""><br>
<img src="https://i.imgur.com/TNXCmTB.png" class="bbCodeImage LbImage" alt="[​IMG]" data-url="https://i.imgur.com/TNXCmTB.png" style=""><br>
<img src="https://i.imgur.com/i5N2xqR.png" class="bbCodeImage LbImage" alt="[​IMG]" data-url="https://i.imgur.com/i5N2xqR.png" style=""></b></i></div>
</div><br>
<div class="ToggleTriggerAnchor bbCodeSpoilerContainer">
<button type="button" class="button bbCodeSpoilerButton ToggleTrigger Tooltip JsOnly" data-target="> .SpoilerTarget"><span>Spoiler: <span class="SpoilerTitle">MediaInfo</span></span></button>
<div class="SpoilerTarget bbCodeSpoilerText"><div style="text-align: left">
<div class="bbCodeBlock bbCodeHtml">
<div class="type">HTML:</div>
<pre>General
Unique ID                                : 251263128381399324644231580702459644165 (0xBD0784AE7533ED2B84A2F9E414014905)
Complete name                            : Z:\Queer As Folk S05\Queer.as.Folk.US.S05E01.Move.and.Leave.1080p.AMZN.WEB-DL.DDP5.1.x264-NTb.mkv
Format                                   : Matroska
Format version                           : Version 4
File size                                : 4.55 GiB
Duration                                 : 48 min 10 s
Overall bit rate mode                    : Variable
Overall bit rate                         : 13.5 Mb/s
Frame rate                               : 23.976 FPS
Encoded date                             : 2017-08-05 20:39:57 UTC
Writing application                      : mkvmerge v10.0.0 ('To Drown In You') 64bit
Writing library                          : libebml v1.3.4 + libmatroska v1.4.5

Video
ID                                       : 1
Format                                   : AVC
Format/Info                              : Advanced Video Codec
Format profile                           : High@L4
Format settings                          : CABAC / 4 Ref Frames
Format settings, CABAC                   : Yes
Format settings, Reference frames        : 4 frames
Codec ID                                 : V_MPEG4/ISO/AVC
Duration                                 : 48 min 10 s
Bit rate mode                            : Variable
Bit rate                                 : 12.9 Mb/s
Maximum bit rate                         : 15.0 Mb/s
Width                                    : 1 920 pixels
Height                                   : 1 080 pixels
Display aspect ratio                     : 16:9
Frame rate mode                          : Constant
Frame rate                               : 23.976 (24000/1001) FPS
Color space                              : YUV
Chroma subsampling                       : 4:2:0
Bit depth                                : 8 bits
Scan type                                : Progressive
Bits/(Pixel*Frame)                       : 0.259
Stream size                              : 4.33 GiB (95%)
Writing library                          : x264 core 148 r2623 d5b2374
Encoding settings                        : cabac=1 / ref=4 / deblock=1:-1:-1 / analyse=0x3:0x133 / me=umh / subme=9 / psy=1 / psy_rd=1.00:0.15 / mixed_ref=1 / me_range=24 / chroma_me=1 / trellis=2 / 8x8dct=1 / cqm=0 / deadzone=21,11 / fast_pskip=1 / chroma_qp_offset=-3 / threads=34 / lookahead_threads=5 / sliced_threads=0 / nr=150 / decimate=1 / interlaced=0 / bluray_compat=0 / constrained_intra=0 / bframes=8 / b_pyramid=2 / b_adapt=2 / b_bias=0 / direct=3 / weightb=1 / open_gop=0 / weightp=2 / keyint=120 / keyint_min=61 / scenecut=0 / intra_refresh=0 / rc_lookahead=120 / rc=crf / mbtree=1 / crf=18.0 / qcomp=0.60 / qpmin=0 / qpmax=69 / qpstep=4 / vbv_maxrate=15000 / vbv_bufsize=31250 / crf_max=0.0 / nal_hrd=vbr / filler=0 / ip_ratio=1.40 / aq=3:1.00
Default                                  : Yes
Forced                                   : No
Color range                              : Limited
Color primaries                          : BT.709
Transfer characteristics                 : BT.709
Matrix coefficients                      : BT.709

Audio
ID                                       : 2
Format                                   : E-AC-3
Format/Info                              : Enhanced AC-3
Commercial name                          : Dolby Digital Plus
Codec ID                                 : A_EAC3
Duration                                 : 48 min 10 s
Bit rate mode                            : Constant
Bit rate                                 : 640 kb/s
Channel(s)                               : 6 channels
Channel layout                           : L R C LFE Ls Rs
Sampling rate                            : 48.0 kHz
Frame rate                               : 31.250 FPS (1536 SPF)
Compression mode                         : Lossy
Stream size                              : 221 MiB (5%)
Language                                 : English
Service kind                             : Complete Main
Default                                  : Yes
Forced                                   : No
Dialog Normalization                     : -24 dB
compr                                    : -0.28 dB
dialnorm_Average                         : -24 dB
dialnorm_Minimum                         : -24 dB
dialnorm_Maximum                         : -24 dB

Text
ID                                       : 3
Format                                   : UTF-8
Codec ID                                 : S_TEXT/UTF8
Codec ID/Info                            : UTF-8 Plain Text
Duration                                 : 47 min 57 s
Bit rate                                 : 93 b/s
Frame rate                               : 0.392 FPS
Count of elements                        : 1128
Stream size                              : 32.9 KiB (0%)
Language                                 : English
Default                                  : No
Forced                                   : No

General
Unique ID                                : 189757314650908759074673697525811094427 (0x8EC1EDF0200C51F88C27641A9B4FA39B)
Complete name                            : Z:\Queer As Folk S05\Queer.as.Folk.US.S05E02.Back.In.Business.1080p.AMZN.WEB-DL.DDP5.1.x264-NTb.mkv
Format                                   : Matroska
Format version                           : Version 4
File size                                : 4.67 GiB
Duration                                 : 48 min 53 s
Overall bit rate mode                    : Variable
Overall bit rate                         : 13.7 Mb/s
Frame rate                               : 23.976 FPS
Encoded date                             : 2017-08-05 20:50:01 UTC
Writing application                      : mkvmerge v10.0.0 ('To Drown In You') 64bit
Writing library                          : libebml v1.3.4 + libmatroska v1.4.5

Video
ID                                       : 1
Format                                   : AVC
Format/Info                              : Advanced Video Codec
Format profile                           : High@L4
Format settings                          : CABAC / 4 Ref Frames
Format settings, CABAC                   : Yes
Format settings, Reference frames        : 4 frames
Codec ID                                 : V_MPEG4/ISO/AVC
Duration                                 : 48 min 53 s
Bit rate mode                            : Variable
Bit rate                                 : 13.0 Mb/s
Maximum bit rate                         : 15.0 Mb/s
Width                                    : 1 920 pixels
Height                                   : 1 080 pixels
Display aspect ratio                     : 16:9
Frame rate mode                          : Constant
Frame rate                               : 23.976 (24000/1001) FPS
Color space                              : YUV
Chroma subsampling                       : 4:2:0
Bit depth                                : 8 bits
Scan type                                : Progressive
Bits/(Pixel*Frame)                       : 0.262
Stream size                              : 4.45 GiB (95%)
Writing library                          : x264 core 148 r2623 d5b2374
Encoding settings                        : cabac=1 / ref=4 / deblock=1:-1:-1 / analyse=0x3:0x133 / me=umh / subme=9 / psy=1 / psy_rd=1.00:0.15 / mixed_ref=1 / me_range=24 / chroma_me=1 / trellis=2 / 8x8dct=1 / cqm=0 / deadzone=21,11 / fast_pskip=1 / chroma_qp_offset=-3 / threads=34 / lookahead_threads=5 / sliced_threads=0 / nr=150 / decimate=1 / interlaced=0 / bluray_compat=0 / constrained_intra=0 / bframes=8 / b_pyramid=2 / b_adapt=2 / b_bias=0 / direct=3 / weightb=1 / open_gop=0 / weightp=2 / keyint=120 / keyint_min=61 / scenecut=0 / intra_refresh=0 / rc_lookahead=120 / rc=crf / mbtree=1 / crf=18.0 / qcomp=0.60 / qpmin=0 / qpmax=69 / qpstep=4 / vbv_maxrate=15000 / vbv_bufsize=31250 / crf_max=0.0 / nal_hrd=vbr / filler=0 / ip_ratio=1.40 / aq=3:1.00
Default                                  : Yes
Forced                                   : No
Color range                              : Limited
Color primaries                          : BT.709
Transfer characteristics                 : BT.709
Matrix coefficients                      : BT.709

Audio
ID                                       : 2
Format                                   : E-AC-3
Format/Info                              : Enhanced AC-3
Commercial name                          : Dolby Digital Plus
Codec ID                                 : A_EAC3
Duration                                 : 48 min 53 s
Bit rate mode                            : Constant
Bit rate                                 : 640 kb/s
Channel(s)                               : 6 channels
Channel layout                           : L R C LFE Ls Rs
Sampling rate                            : 48.0 kHz
Frame rate                               : 31.250 FPS (1536 SPF)
Compression mode                         : Lossy
Stream size                              : 224 MiB (5%)
Language                                 : English
Service kind                             : Complete Main
Default                                  : Yes
Forced                                   : No
Dialog Normalization                     : -24 dB
compr                                    : -0.28 dB
dialnorm_Average                         : -24 dB
dialnorm_Minimum                         : -24 dB
dialnorm_Maximum                         : -24 dB

Text
ID                                       : 3
Format                                   : UTF-8
Codec ID                                 : S_TEXT/UTF8
Codec ID/Info                            : UTF-8 Plain Text
Duration                                 : 48 min 42 s
Bit rate                                 : 90 b/s
Frame rate                               : 0.345 FPS
Count of elements                        : 1007
Stream size                              : 32.5 KiB (0%)
Language                                 : English
Default                                  : No
Forced                                   : No

General
Unique ID                                : 255141827306789747396433438329105587316 (0xBFF2874D95692582A3429A81F6F09C74)
Complete name                            : Z:\Queer As Folk S05\Queer.as.Folk.US.S05E03.Fags.Are.No.Different.Than.People.1080p.AMZN.WEB-DL.DDP5.1.x264-NTb.mkv
Format                                   : Matroska
Format version                           : Version 4
File size                                : 4.73 GiB
Duration                                 : 47 min 23 s
Overall bit rate mode                    : Variable
Overall bit rate                         : 14.3 Mb/s
Frame rate                               : 23.976 FPS
Encoded date                             : 2017-08-05 21:00:13 UTC
Writing application                      : mkvmerge v10.0.0 ('To Drown In You') 64bit
Writing library                          : libebml v1.3.4 + libmatroska v1.4.5

Video
ID                                       : 1
Format                                   : AVC
Format/Info                              : Advanced Video Codec
Format profile                           : High@L4
Format settings                          : CABAC / 4 Ref Frames
Format settings, CABAC                   : Yes
Format settings, Reference frames        : 4 frames
Codec ID                                 : V_MPEG4/ISO/AVC
Duration                                 : 47 min 23 s
Bit rate mode                            : Variable
Bit rate                                 : 13.6 Mb/s
Maximum bit rate                         : 15.0 Mb/s
Width                                    : 1 920 pixels
Height                                   : 1 080 pixels
Display aspect ratio                     : 16:9
Frame rate mode                          : Constant
Frame rate                               : 23.976 (24000/1001) FPS
Color space                              : YUV
Chroma subsampling                       : 4:2:0
Bit depth                                : 8 bits
Scan type                                : Progressive
Bits/(Pixel*Frame)                       : 0.274
Stream size                              : 4.52 GiB (96%)
Writing library                          : x264 core 148 r2623 d5b2374
Encoding settings                        : cabac=1 / ref=4 / deblock=1:-1:-1 / analyse=0x3:0x133 / me=umh / subme=9 / psy=1 / psy_rd=1.00:0.15 / mixed_ref=1 / me_range=24 / chroma_me=1 / trellis=2 / 8x8dct=1 / cqm=0 / deadzone=21,11 / fast_pskip=1 / chroma_qp_offset=-3 / threads=34 / lookahead_threads=5 / sliced_threads=0 / nr=150 / decimate=1 / interlaced=0 / bluray_compat=0 / constrained_intra=0 / bframes=8 / b_pyramid=2 / b_adapt=2 / b_bias=0 / direct=3 / weightb=1 / open_gop=0 / weightp=2 / keyint=120 / keyint_min=61 / scenecut=0 / intra_refresh=0 / rc_lookahead=120 / rc=crf / mbtree=1 / crf=18.0 / qcomp=0.60 / qpmin=0 / qpmax=69 / qpstep=4 / vbv_maxrate=15000 / vbv_bufsize=31250 / crf_max=0.0 / nal_hrd=vbr / filler=0 / ip_ratio=1.40 / aq=3:1.00
Default                                  : Yes
Forced                                   : No
Color range                              : Limited
Color primaries                          : BT.709
Transfer characteristics                 : BT.709
Matrix coefficients                      : BT.709

Audio
ID                                       : 2
Format                                   : E-AC-3
Format/Info                              : Enhanced AC-3
Commercial name                          : Dolby Digital Plus
Codec ID                                 : A_EAC3
Duration                                 : 47 min 23 s
Bit rate mode                            : Constant
Bit rate                                 : 640 kb/s
Channel(s)                               : 6 channels
Channel layout                           : L R C LFE Ls Rs
Sampling rate                            : 48.0 kHz
Frame rate                               : 31.250 FPS (1536 SPF)
Compression mode                         : Lossy
Stream size                              : 217 MiB (4%)
Language                                 : English
Service kind                             : Complete Main
Default                                  : Yes
Forced                                   : No
Dialog Normalization                     : -24 dB
compr                                    : -0.28 dB
dialnorm_Average                         : -24 dB
dialnorm_Minimum                         : -24 dB
dialnorm_Maximum                         : -24 dB

Text
ID                                       : 3
Format                                   : UTF-8
Codec ID                                 : S_TEXT/UTF8
Codec ID/Info                            : UTF-8 Plain Text
Duration                                 : 47 min 11 s
Bit rate                                 : 94 b/s
Frame rate                               : 0.375 FPS
Count of elements                        : 1062
Stream size                              : 32.8 KiB (0%)
Language                                 : English
Default                                  : No
Forced                                   : No

General
Unique ID                                : 174077308571697263673233299425910015195 (0x82F611F37E2EF528A18564B614EF44DB)
Complete name                            : Z:\Queer As Folk S05\Queer.as.Folk.US.S05E04.Hard.Decisions.1080p.AMZN.WEB-DL.DDP5.1.x264-NTb.mkv
Format                                   : Matroska
Format version                           : Version 4
File size                                : 4.87 GiB
Duration                                 : 48 min 54 s
Overall bit rate mode                    : Variable
Overall bit rate                         : 14.3 Mb/s
Frame rate                               : 23.976 FPS
Encoded date                             : 2017-08-05 21:10:59 UTC
Writing application                      : mkvmerge v10.0.0 ('To Drown In You') 64bit
Writing library                          : libebml v1.3.4 + libmatroska v1.4.5

Video
ID                                       : 1
Format                                   : AVC
Format/Info                              : Advanced Video Codec
Format profile                           : High@L4
Format settings                          : CABAC / 4 Ref Frames
Format settings, CABAC                   : Yes
Format settings, Reference frames        : 4 frames
Codec ID                                 : V_MPEG4/ISO/AVC
Duration                                 : 48 min 54 s
Bit rate mode                            : Variable
Bit rate                                 : 13.6 Mb/s
Maximum bit rate                         : 15.0 Mb/s
Width                                    : 1 920 pixels
Height                                   : 1 080 pixels
Display aspect ratio                     : 16:9
Frame rate mode                          : Constant
Frame rate                               : 23.976 (24000/1001) FPS
Color space                              : YUV
Chroma subsampling                       : 4:2:0
Bit depth                                : 8 bits
Scan type                                : Progressive
Bits/(Pixel*Frame)                       : 0.274
Stream size                              : 4.65 GiB (95%)
Writing library                          : x264 core 148 r2623 d5b2374
Encoding settings                        : cabac=1 / ref=4 / deblock=1:-1:-1 / analyse=0x3:0x133 / me=umh / subme=9 / psy=1 / psy_rd=1.00:0.15 / mixed_ref=1 / me_range=24 / chroma_me=1 / trellis=2 / 8x8dct=1 / cqm=0 / deadzone=21,11 / fast_pskip=1 / chroma_qp_offset=-3 / threads=34 / lookahead_threads=5 / sliced_threads=0 / nr=150 / decimate=1 / interlaced=0 / bluray_compat=0 / constrained_intra=0 / bframes=8 / b_pyramid=2 / b_adapt=2 / b_bias=0 / direct=3 / weightb=1 / open_gop=0 / weightp=2 / keyint=120 / keyint_min=61 / scenecut=0 / intra_refresh=0 / rc_lookahead=120 / rc=crf / mbtree=1 / crf=18.0 / qcomp=0.60 / qpmin=0 / qpmax=69 / qpstep=4 / vbv_maxrate=15000 / vbv_bufsize=31250 / crf_max=0.0 / nal_hrd=vbr / filler=0 / ip_ratio=1.40 / aq=3:1.00
Default                                  : Yes
Forced                                   : No
Color range                              : Limited
Color primaries                          : BT.709
Transfer characteristics                 : BT.709
Matrix coefficients                      : BT.709

Audio
ID                                       : 2
Format                                   : E-AC-3
Format/Info                              : Enhanced AC-3
Commercial name                          : Dolby Digital Plus
Codec ID                                 : A_EAC3
Duration                                 : 48 min 54 s
Bit rate mode                            : Constant
Bit rate                                 : 640 kb/s
Channel(s)                               : 6 channels
Channel layout                           : L R C LFE Ls Rs
Sampling rate                            : 48.0 kHz
Frame rate                               : 31.250 FPS (1536 SPF)
Compression mode                         : Lossy
Stream size                              : 224 MiB (4%)
Language                                 : English
Service kind                             : Complete Main
Default                                  : Yes
Forced                                   : No
Dialog Normalization                     : -24 dB
compr                                    : -0.28 dB
dialnorm_Average                         : -24 dB
dialnorm_Minimum                         : -24 dB
dialnorm_Maximum                         : -24 dB

Text
ID                                       : 3
Format                                   : UTF-8
Codec ID                                 : S_TEXT/UTF8
Codec ID/Info                            : UTF-8 Plain Text
Duration                                 : 47 min 55 s
Bit rate                                 : 88 b/s
Frame rate                               : 0.359 FPS
Count of elements                        : 1033
Stream size                              : 31.0 KiB (0%)
Language                                 : English
Default                                  : No
Forced                                   : No

General
Unique ID                                : 228244409308146722268675668350882838396 (0xABB646356A54C6FCBEAB84BF5648777C)
Complete name                            : Z:\Queer As Folk S05\Queer.as.Folk.US.S05E05.Excluding.and.Abstemiousness.1080p.AMZN.WEB-DL.DDP5.1.x264-NTb.mkv
Format                                   : Matroska
Format version                           : Version 4
File size                                : 4.76 GiB
Duration                                 : 48 min 36 s
Overall bit rate mode                    : Variable
Overall bit rate                         : 14.0 Mb/s
Frame rate                               : 23.976 FPS
Encoded date                             : 2017-08-05 21:21:14 UTC
Writing application                      : mkvmerge v10.0.0 ('To Drown In You') 64bit
Writing library                          : libebml v1.3.4 + libmatroska v1.4.5

Video
ID                                       : 1
Format                                   : AVC
Format/Info                              : Advanced Video Codec
Format profile                           : High@L4
Format settings                          : CABAC / 4 Ref Frames
Format settings, CABAC                   : Yes
Format settings, Reference frames        : 4 frames
Codec ID                                 : V_MPEG4/ISO/AVC
Duration                                 : 48 min 36 s
Bit rate mode                            : Variable
Bit rate                                 : 13.4 Mb/s
Maximum bit rate                         : 15.0 Mb/s
Width                                    : 1 920 pixels
Height                                   : 1 080 pixels
Display aspect ratio                     : 16:9
Frame rate mode                          : Constant
Frame rate                               : 23.976 (24000/1001) FPS
Color space                              : YUV
Chroma subsampling                       : 4:2:0
Bit depth                                : 8 bits
Scan type                                : Progressive
Bits/(Pixel*Frame)                       : 0.269
Stream size                              : 4.54 GiB (95%)
Writing library                          : x264 core 148 r2623 d5b2374
Encoding settings                        : cabac=1 / ref=4 / deblock=1:-1:-1 / analyse=0x3:0x133 / me=umh / subme=9 / psy=1 / psy_rd=1.00:0.15 / mixed_ref=1 / me_range=24 / chroma_me=1 / trellis=2 / 8x8dct=1 / cqm=0 / deadzone=21,11 / fast_pskip=1 / chroma_qp_offset=-3 / threads=34 / lookahead_threads=5 / sliced_threads=0 / nr=150 / decimate=1 / interlaced=0 / bluray_compat=0 / constrained_intra=0 / bframes=8 / b_pyramid=2 / b_adapt=2 / b_bias=0 / direct=3 / weightb=1 / open_gop=0 / weightp=2 / keyint=120 / keyint_min=61 / scenecut=0 / intra_refresh=0 / rc_lookahead=120 / rc=crf / mbtree=1 / crf=18.0 / qcomp=0.60 / qpmin=0 / qpmax=69 / qpstep=4 / vbv_maxrate=15000 / vbv_bufsize=31250 / crf_max=0.0 / nal_hrd=vbr / filler=0 / ip_ratio=1.40 / aq=3:1.00
Default                                  : Yes
Forced                                   : No
Color range                              : Limited
Color primaries                          : BT.709
Transfer characteristics                 : BT.709
Matrix coefficients                      : BT.709

Audio
ID                                       : 2
Format                                   : E-AC-3
Format/Info                              : Enhanced AC-3
Commercial name                          : Dolby Digital Plus
Codec ID                                 : A_EAC3
Duration                                 : 48 min 36 s
Bit rate mode                            : Constant
Bit rate                                 : 640 kb/s
Channel(s)                               : 6 channels
Channel layout                           : L R C LFE Ls Rs
Sampling rate                            : 48.0 kHz
Frame rate                               : 31.250 FPS (1536 SPF)
Compression mode                         : Lossy
Stream size                              : 223 MiB (5%)
Language                                 : English
Service kind                             : Complete Main
Default                                  : Yes
Forced                                   : No
Dialog Normalization                     : -24 dB
compr                                    : -0.28 dB
dialnorm_Average                         : -24 dB
dialnorm_Minimum                         : -24 dB
dialnorm_Maximum                         : -24 dB

Text
ID                                       : 3
Format                                   : UTF-8
Codec ID                                 : S_TEXT/UTF8
Codec ID/Info                            : UTF-8 Plain Text
Duration                                 : 48 min 23 s
Bit rate                                 : 87 b/s
Frame rate                               : 0.365 FPS
Count of elements                        : 1060
Stream size                              : 31.1 KiB (0%)
Language                                 : English
Default                                  : No
Forced                                   : No

General
Unique ID                                : 224855978953995170394480842149138379612 (0xA929AFB1A1D06C92B90DE8EB7595B35C)
Complete name                            : Z:\Queer As Folk S05\Queer.as.Folk.US.S05E06.Bored.Out.of.Ya.Fucking.Mind.1080p.AMZN.WEB-DL.DDP5.1.x264-NTb.mkv
Format                                   : Matroska
Format version                           : Version 4
File size                                : 4.30 GiB
Duration                                 : 47 min 31 s
Overall bit rate mode                    : Variable
Overall bit rate                         : 13.0 Mb/s
Frame rate                               : 23.976 FPS
Encoded date                             : 2017-08-05 21:30:35 UTC
Writing application                      : mkvmerge v10.0.0 ('To Drown In You') 64bit
Writing library                          : libebml v1.3.4 + libmatroska v1.4.5

Video
ID                                       : 1
Format                                   : AVC
Format/Info                              : Advanced Video Codec
Format profile                           : High@L4
Format settings                          : CABAC / 4 Ref Frames
Format settings, CABAC                   : Yes
Format settings, Reference frames        : 4 frames
Codec ID                                 : V_MPEG4/ISO/AVC
Duration                                 : 47 min 31 s
Bit rate mode                            : Variable
Bit rate                                 : 12.3 Mb/s
Maximum bit rate                         : 15.0 Mb/s
Width                                    : 1 920 pixels
Height                                   : 1 080 pixels
Display aspect ratio                     : 16:9
Frame rate mode                          : Constant
Frame rate                               : 23.976 (24000/1001) FPS
Color space                              : YUV
Chroma subsampling                       : 4:2:0
Bit depth                                : 8 bits
Scan type                                : Progressive
Bits/(Pixel*Frame)                       : 0.248
Stream size                              : 4.09 GiB (95%)
Writing library                          : x264 core 148 r2623 d5b2374
Encoding settings                        : cabac=1 / ref=4 / deblock=1:-1:-1 / analyse=0x3:0x133 / me=umh / subme=9 / psy=1 / psy_rd=1.00:0.15 / mixed_ref=1 / me_range=24 / chroma_me=1 / trellis=2 / 8x8dct=1 / cqm=0 / deadzone=21,11 / fast_pskip=1 / chroma_qp_offset=-3 / threads=34 / lookahead_threads=5 / sliced_threads=0 / nr=150 / decimate=1 / interlaced=0 / bluray_compat=0 / constrained_intra=0 / bframes=8 / b_pyramid=2 / b_adapt=2 / b_bias=0 / direct=3 / weightb=1 / open_gop=0 / weightp=2 / keyint=120 / keyint_min=61 / scenecut=0 / intra_refresh=0 / rc_lookahead=120 / rc=crf / mbtree=1 / crf=18.0 / qcomp=0.60 / qpmin=0 / qpmax=69 / qpstep=4 / vbv_maxrate=15000 / vbv_bufsize=31250 / crf_max=0.0 / nal_hrd=vbr / filler=0 / ip_ratio=1.40 / aq=3:1.00
Default                                  : Yes
Forced                                   : No
Color range                              : Limited
Color primaries                          : BT.709
Transfer characteristics                 : BT.709
Matrix coefficients                      : BT.709

Audio
ID                                       : 2
Format                                   : E-AC-3
Format/Info                              : Enhanced AC-3
Commercial name                          : Dolby Digital Plus
Codec ID                                 : A_EAC3
Duration                                 : 47 min 30 s
Bit rate mode                            : Constant
Bit rate                                 : 640 kb/s
Channel(s)                               : 6 channels
Channel layout                           : L R C LFE Ls Rs
Sampling rate                            : 48.0 kHz
Frame rate                               : 31.250 FPS (1536 SPF)
Compression mode                         : Lossy
Stream size                              : 218 MiB (5%)
Language                                 : English
Service kind                             : Complete Main
Default                                  : Yes
Forced                                   : No
Dialog Normalization                     : -24 dB
compr                                    : -0.28 dB
dialnorm_Average                         : -24 dB
dialnorm_Minimum                         : -24 dB
dialnorm_Maximum                         : -24 dB

Text
ID                                       : 3
Format                                   : UTF-8
Codec ID                                 : S_TEXT/UTF8
Codec ID/Info                            : UTF-8 Plain Text
Duration                                 : 47 min 18 s
Bit rate                                 : 74 b/s
Frame rate                               : 0.343 FPS
Count of elements                        : 973
Stream size                              : 25.8 KiB (0%)
Language                                 : English
Default                                  : No
Forced                                   : No

General
Unique ID                                : 206392321896707813554761454676718683262 (0x9B45B71E1D186F9691C5FB84A1E8847E)
Complete name                            : Z:\Queer As Folk S05\Queer.as.Folk.US.S05E07.Hope.Against.Hope.1080p.AMZN.WEB-DL.DDP5.1.x264-NTb.mkv
Format                                   : Matroska
Format version                           : Version 4
File size                                : 4.85 GiB
Duration                                 : 51 min 38 s
Overall bit rate mode                    : Variable
Overall bit rate                         : 13.5 Mb/s
Frame rate                               : 23.976 FPS
Encoded date                             : 2017-08-05 21:41:25 UTC
Writing application                      : mkvmerge v10.0.0 ('To Drown In You') 64bit
Writing library                          : libebml v1.3.4 + libmatroska v1.4.5

Video
ID                                       : 1
Format                                   : AVC
Format/Info                              : Advanced Video Codec
Format profile                           : High@L4
Format settings                          : CABAC / 4 Ref Frames
Format settings, CABAC                   : Yes
Format settings, Reference frames        : 4 frames
Codec ID                                 : V_MPEG4/ISO/AVC
Duration                                 : 51 min 38 s
Bit rate mode                            : Variable
Bit rate                                 : 12.8 Mb/s
Maximum bit rate                         : 15.0 Mb/s
Width                                    : 1 920 pixels
Height                                   : 1 080 pixels
Display aspect ratio                     : 16:9
Frame rate mode                          : Constant
Frame rate                               : 23.976 (24000/1001) FPS
Color space                              : YUV
Chroma subsampling                       : 4:2:0
Bit depth                                : 8 bits
Scan type                                : Progressive
Bits/(Pixel*Frame)                       : 0.258
Stream size                              : 4.62 GiB (95%)
Writing library                          : x264 core 148 r2623 d5b2374
Encoding settings                        : cabac=1 / ref=4 / deblock=1:-1:-1 / analyse=0x3:0x133 / me=umh / subme=9 / psy=1 / psy_rd=1.00:0.15 / mixed_ref=1 / me_range=24 / chroma_me=1 / trellis=2 / 8x8dct=1 / cqm=0 / deadzone=21,11 / fast_pskip=1 / chroma_qp_offset=-3 / threads=34 / lookahead_threads=5 / sliced_threads=0 / nr=150 / decimate=1 / interlaced=0 / bluray_compat=0 / constrained_intra=0 / bframes=8 / b_pyramid=2 / b_adapt=2 / b_bias=0 / direct=3 / weightb=1 / open_gop=0 / weightp=2 / keyint=120 / keyint_min=61 / scenecut=0 / intra_refresh=0 / rc_lookahead=120 / rc=crf / mbtree=1 / crf=18.0 / qcomp=0.60 / qpmin=0 / qpmax=69 / qpstep=4 / vbv_maxrate=15000 / vbv_bufsize=31250 / crf_max=0.0 / nal_hrd=vbr / filler=0 / ip_ratio=1.40 / aq=3:1.00
Default                                  : Yes
Forced                                   : No
Color range                              : Limited
Color primaries                          : BT.709
Transfer characteristics                 : BT.709
Matrix coefficients                      : BT.709

Audio
ID                                       : 2
Format                                   : E-AC-3
Format/Info                              : Enhanced AC-3
Commercial name                          : Dolby Digital Plus
Codec ID                                 : A_EAC3
Duration                                 : 51 min 38 s
Bit rate mode                            : Constant
Bit rate                                 : 640 kb/s
Channel(s)                               : 6 channels
Channel layout                           : L R C LFE Ls Rs
Sampling rate                            : 48.0 kHz
Frame rate                               : 31.250 FPS (1536 SPF)
Compression mode                         : Lossy
Stream size                              : 236 MiB (5%)
Language                                 : English
Service kind                             : Complete Main
Default                                  : Yes
Forced                                   : No
Dialog Normalization                     : -24 dB
compr                                    : -0.28 dB
dialnorm_Average                         : -24 dB
dialnorm_Minimum                         : -24 dB
dialnorm_Maximum                         : -24 dB

Text
ID                                       : 3
Format                                   : UTF-8
Codec ID                                 : S_TEXT/UTF8
Codec ID/Info                            : UTF-8 Plain Text
Duration                                 : 51 min 23 s
Bit rate                                 : 80 b/s
Frame rate                               : 0.329 FPS
Count of elements                        : 1015
Stream size                              : 30.5 KiB (0%)
Language                                 : English
Default                                  : No
Forced                                   : No

General
Unique ID                                : 199453572443609480533611252028989861384 (0x960D5C5B51A2922DB77391C2C0616E08)
Complete name                            : Z:\Queer As Folk S05\Queer.as.Folk.US.S05E08.Honest.to.Yourself.1080p.AMZN.WEB-DL.DDP5.1.x264-NTb.mkv
Format                                   : Matroska
Format version                           : Version 4
File size                                : 4.39 GiB
Duration                                 : 46 min 54 s
Overall bit rate mode                    : Variable
Overall bit rate                         : 13.4 Mb/s
Frame rate                               : 23.976 FPS
Encoded date                             : 2017-08-05 21:51:14 UTC
Writing application                      : mkvmerge v10.0.0 ('To Drown In You') 64bit
Writing library                          : libebml v1.3.4 + libmatroska v1.4.5

Video
ID                                       : 1
Format                                   : AVC
Format/Info                              : Advanced Video Codec
Format profile                           : High@L4
Format settings                          : CABAC / 4 Ref Frames
Format settings, CABAC                   : Yes
Format settings, Reference frames        : 4 frames
Codec ID                                 : V_MPEG4/ISO/AVC
Duration                                 : 46 min 54 s
Bit rate mode                            : Variable
Bit rate                                 : 12.8 Mb/s
Maximum bit rate                         : 15.0 Mb/s
Width                                    : 1 920 pixels
Height                                   : 1 080 pixels
Display aspect ratio                     : 16:9
Frame rate mode                          : Constant
Frame rate                               : 23.976 (24000/1001) FPS
Color space                              : YUV
Chroma subsampling                       : 4:2:0
Bit depth                                : 8 bits
Scan type                                : Progressive
Bits/(Pixel*Frame)                       : 0.257
Stream size                              : 4.18 GiB (95%)
Writing library                          : x264 core 148 r2623 d5b2374
Encoding settings                        : cabac=1 / ref=4 / deblock=1:-1:-1 / analyse=0x3:0x133 / me=umh / subme=9 / psy=1 / psy_rd=1.00:0.15 / mixed_ref=1 / me_range=24 / chroma_me=1 / trellis=2 / 8x8dct=1 / cqm=0 / deadzone=21,11 / fast_pskip=1 / chroma_qp_offset=-3 / threads=34 / lookahead_threads=5 / sliced_threads=0 / nr=150 / decimate=1 / interlaced=0 / bluray_compat=0 / constrained_intra=0 / bframes=8 / b_pyramid=2 / b_adapt=2 / b_bias=0 / direct=3 / weightb=1 / open_gop=0 / weightp=2 / keyint=120 / keyint_min=61 / scenecut=0 / intra_refresh=0 / rc_lookahead=120 / rc=crf / mbtree=1 / crf=18.0 / qcomp=0.60 / qpmin=0 / qpmax=69 / qpstep=4 / vbv_maxrate=15000 / vbv_bufsize=31250 / crf_max=0.0 / nal_hrd=vbr / filler=0 / ip_ratio=1.40 / aq=3:1.00
Default                                  : Yes
Forced                                   : No
Color range                              : Limited
Color primaries                          : BT.709
Transfer characteristics                 : BT.709
Matrix coefficients                      : BT.709

Audio
ID                                       : 2
Format                                   : E-AC-3
Format/Info                              : Enhanced AC-3
Commercial name                          : Dolby Digital Plus
Codec ID                                 : A_EAC3
Duration                                 : 46 min 54 s
Bit rate mode                            : Constant
Bit rate                                 : 640 kb/s
Channel(s)                               : 6 channels
Channel layout                           : L R C LFE Ls Rs
Sampling rate                            : 48.0 kHz
Frame rate                               : 31.250 FPS (1536 SPF)
Compression mode                         : Lossy
Stream size                              : 215 MiB (5%)
Language                                 : English
Service kind                             : Complete Main
Default                                  : Yes
Forced                                   : No
Dialog Normalization                     : -24 dB
compr                                    : -0.28 dB
dialnorm_Average                         : -24 dB
dialnorm_Minimum                         : -24 dB
dialnorm_Maximum                         : -24 dB

Text
ID                                       : 3
Format                                   : UTF-8
Codec ID                                 : S_TEXT/UTF8
Codec ID/Info                            : UTF-8 Plain Text
Duration                                 : 46 min 40 s
Bit rate                                 : 86 b/s
Frame rate                               : 0.359 FPS
Count of elements                        : 1004
Stream size                              : 29.4 KiB (0%)
Language                                 : English
Default                                  : No
Forced                                   : No

General
Unique ID                                : 249214487794494420410966044583432502126 (0xBB7CF6E6F8DAEF02BA8B61C97B573B6E)
Complete name                            : Z:\Queer As Folk S05\Queer.as.Folk.US.S05E09.Anything.In.Common.1080p.AMZN.WEB-DL.DDP5.1.x264-NTb.mkv
Format                                   : Matroska
Format version                           : Version 4
File size                                : 5.07 GiB
Duration                                 : 50 min 24 s
Overall bit rate mode                    : Variable
Overall bit rate                         : 14.4 Mb/s
Frame rate                               : 23.976 FPS
Encoded date                             : 2017-08-05 22:02:26 UTC
Writing application                      : mkvmerge v10.0.0 ('To Drown In You') 64bit
Writing library                          : libebml v1.3.4 + libmatroska v1.4.5

Video
ID                                       : 1
Format                                   : AVC
Format/Info                              : Advanced Video Codec
Format profile                           : High@L4
Format settings                          : CABAC / 4 Ref Frames
Format settings, CABAC                   : Yes
Format settings, Reference frames        : 4 frames
Codec ID                                 : V_MPEG4/ISO/AVC
Duration                                 : 50 min 24 s
Bit rate mode                            : Variable
Bit rate                                 : 13.8 Mb/s
Maximum bit rate                         : 15.0 Mb/s
Width                                    : 1 920 pixels
Height                                   : 1 080 pixels
Display aspect ratio                     : 16:9
Frame rate mode                          : Constant
Frame rate                               : 23.976 (24000/1001) FPS
Color space                              : YUV
Chroma subsampling                       : 4:2:0
Bit depth                                : 8 bits
Scan type                                : Progressive
Bits/(Pixel*Frame)                       : 0.277
Stream size                              : 4.84 GiB (96%)
Writing library                          : x264 core 148 r2623 d5b2374
Encoding settings                        : cabac=1 / ref=4 / deblock=1:-1:-1 / analyse=0x3:0x133 / me=umh / subme=9 / psy=1 / psy_rd=1.00:0.15 / mixed_ref=1 / me_range=24 / chroma_me=1 / trellis=2 / 8x8dct=1 / cqm=0 / deadzone=21,11 / fast_pskip=1 / chroma_qp_offset=-3 / threads=34 / lookahead_threads=5 / sliced_threads=0 / nr=150 / decimate=1 / interlaced=0 / bluray_compat=0 / constrained_intra=0 / bframes=8 / b_pyramid=2 / b_adapt=2 / b_bias=0 / direct=3 / weightb=1 / open_gop=0 / weightp=2 / keyint=120 / keyint_min=61 / scenecut=0 / intra_refresh=0 / rc_lookahead=120 / rc=crf / mbtree=1 / crf=18.0 / qcomp=0.60 / qpmin=0 / qpmax=69 / qpstep=4 / vbv_maxrate=15000 / vbv_bufsize=31250 / crf_max=0.0 / nal_hrd=vbr / filler=0 / ip_ratio=1.40 / aq=3:1.00
Default                                  : Yes
Forced                                   : No
Color range                              : Limited
Color primaries                          : BT.709
Transfer characteristics                 : BT.709
Matrix coefficients                      : BT.709

Audio
ID                                       : 2
Format                                   : E-AC-3
Format/Info                              : Enhanced AC-3
Commercial name                          : Dolby Digital Plus
Codec ID                                 : A_EAC3
Duration                                 : 50 min 24 s
Bit rate mode                            : Constant
Bit rate                                 : 640 kb/s
Channel(s)                               : 6 channels
Channel layout                           : L R C LFE Ls Rs
Sampling rate                            : 48.0 kHz
Frame rate                               : 31.250 FPS (1536 SPF)
Compression mode                         : Lossy
Stream size                              : 231 MiB (4%)
Language                                 : English
Service kind                             : Complete Main
Default                                  : Yes
Forced                                   : No
Dialog Normalization                     : -24 dB
compr                                    : -0.28 dB
dialnorm_Average                         : -24 dB
dialnorm_Minimum                         : -24 dB
dialnorm_Maximum                         : -24 dB

Text
ID                                       : 3
Format                                   : UTF-8
Codec ID                                 : S_TEXT/UTF8
Codec ID/Info                            : UTF-8 Plain Text
Duration                                 : 47 min 51 s
Bit rate                                 : 77 b/s
Frame rate                               : 0.329 FPS
Count of elements                        : 944
Stream size                              : 27.3 KiB (0%)
Language                                 : English
Default                                  : No
Forced                                   : No

General
Unique ID                                : 247555031574913158727283966522442341674 (0xBA3D5D64CDA0C624B2E8FCE317035D2A)
Complete name                            : Z:\Queer As Folk S05\Queer.as.Folk.US.S05E10.I.Love.You.1080p.AMZN.WEB-DL.DDP5.1.H.264-NTb.mkv
Format                                   : Matroska
Format version                           : Version 4
File size                                : 3.25 GiB
Duration                                 : 47 min 9 s
Overall bit rate                         : 9 857 kb/s
Frame rate                               : 23.976 FPS
Encoded date                             : 2017-08-05 22:10:00 UTC
Writing application                      : mkvmerge v10.0.0 ('To Drown In You') 64bit
Writing library                          : libebml v1.3.4 + libmatroska v1.4.5

Video
ID                                       : 1
Format                                   : AVC
Format/Info                              : Advanced Video Codec
Format profile                           : High@L4
Format settings                          : CABAC / 4 Ref Frames
Format settings, CABAC                   : Yes
Format settings, Reference frames        : 4 frames
Codec ID                                 : V_MPEG4/ISO/AVC
Duration                                 : 47 min 9 s
Bit rate mode                            : Constant
Bit rate                                 : 10 000 kb/s
Width                                    : 1 920 pixels
Height                                   : 1 080 pixels
Display aspect ratio                     : 16:9
Frame rate mode                          : Constant
Frame rate                               : 23.976 (24000/1001) FPS
Color space                              : YUV
Chroma subsampling                       : 4:2:0
Bit depth                                : 8 bits
Scan type                                : Progressive
Bits/(Pixel*Frame)                       : 0.201
Stream size                              : 3.16 GiB (97%)
Language                                 : English
Default                                  : Yes
Forced                                   : No
Color range                              : Limited
Color primaries                          : BT.709
Transfer characteristics                 : BT.709
Matrix coefficients                      : BT.709

Audio
ID                                       : 2
Format                                   : E-AC-3
Format/Info                              : Enhanced AC-3
Commercial name                          : Dolby Digital Plus
Codec ID                                 : A_EAC3
Duration                                 : 47 min 9 s
Bit rate mode                            : Constant
Bit rate                                 : 256 kb/s
Channel(s)                               : 6 channels
Channel layout                           : L R C LFE Ls Rs
Sampling rate                            : 48.0 kHz
Frame rate                               : 31.250 FPS (1536 SPF)
Compression mode                         : Lossy
Stream size                              : 86.4 MiB (3%)
Language                                 : English
Service kind                             : Complete Main
Default                                  : Yes
Forced                                   : No
Dialog Normalization                     : -31 dB
compr                                    : -0.28 dB
mixlevel                                 : 80 dB
dmixmod                                  : Lo/Ro
ltrtcmixlev                              : -3.0 dB
ltrtsurmixlev                            : -3.0 dB
lorocmixlev                              : -3.0 dB
lorosurmixlev                            : -3.0 dB
dialnorm_Average                         : -31 dB
dialnorm_Minimum                         : -31 dB
dialnorm_Maximum                         : -31 dB

Text
ID                                       : 3
Format                                   : UTF-8
Codec ID                                 : S_TEXT/UTF8
Codec ID/Info                            : UTF-8 Plain Text
Duration                                 : 45 min 30 s
Bit rate                                 : 81 b/s
Frame rate                               : 0.331 FPS
Count of elements                        : 904
Stream size                              : 27.1 KiB (0%)
Language                                 : English
Default                                  : No
Forced                                   : No

General
Unique ID                                : 240622005125871115342442621207543825259 (0xB5061CCC799BD590BC5476A4962C436B)
Complete name                            : Z:\Queer As Folk S05\Queer.as.Folk.US.S05E11.Fuckin.Revenge.1080p.AMZN.WEB-DL.DDP5.1.H.264-NTb.mkv
Format                                   : Matroska
Format version                           : Version 4
File size                                : 3.78 GiB
Duration                                 : 54 min 38 s
Overall bit rate                         : 9 898 kb/s
Frame rate                               : 23.976 FPS
Encoded date                             : 2017-08-05 22:18:44 UTC
Writing application                      : mkvmerge v10.0.0 ('To Drown In You') 64bit
Writing library                          : libebml v1.3.4 + libmatroska v1.4.5

Video
ID                                       : 1
Format                                   : AVC
Format/Info                              : Advanced Video Codec
Format profile                           : High@L4
Format settings                          : CABAC / 4 Ref Frames
Format settings, CABAC                   : Yes
Format settings, Reference frames        : 4 frames
Codec ID                                 : V_MPEG4/ISO/AVC
Duration                                 : 54 min 38 s
Bit rate mode                            : Constant
Bit rate                                 : 10 000 kb/s
Width                                    : 1 920 pixels
Height                                   : 1 080 pixels
Display aspect ratio                     : 16:9
Frame rate mode                          : Constant
Frame rate                               : 23.976 (24000/1001) FPS
Color space                              : YUV
Chroma subsampling                       : 4:2:0
Bit depth                                : 8 bits
Scan type                                : Progressive
Bits/(Pixel*Frame)                       : 0.201
Stream size                              : 3.68 GiB (97%)
Language                                 : English
Default                                  : Yes
Forced                                   : No
Color range                              : Limited
Color primaries                          : BT.709
Transfer characteristics                 : BT.709
Matrix coefficients                      : BT.709

Audio
ID                                       : 2
Format                                   : E-AC-3
Format/Info                              : Enhanced AC-3
Commercial name                          : Dolby Digital Plus
Codec ID                                 : A_EAC3
Duration                                 : 54 min 38 s
Bit rate mode                            : Constant
Bit rate                                 : 256 kb/s
Channel(s)                               : 6 channels
Channel layout                           : L R C LFE Ls Rs
Sampling rate                            : 48.0 kHz
Frame rate                               : 31.250 FPS (1536 SPF)
Compression mode                         : Lossy
Stream size                              : 100 MiB (3%)
Language                                 : English
Service kind                             : Complete Main
Default                                  : Yes
Forced                                   : No
Dialog Normalization                     : -31 dB
compr                                    : -0.28 dB
mixlevel                                 : 80 dB
dmixmod                                  : Lo/Ro
ltrtcmixlev                              : -3.0 dB
ltrtsurmixlev                            : -3.0 dB
lorocmixlev                              : -3.0 dB
lorosurmixlev                            : -3.0 dB
dialnorm_Average                         : -31 dB
dialnorm_Minimum                         : -31 dB
dialnorm_Maximum                         : -31 dB

Text
ID                                       : 3
Format                                   : UTF-8
Codec ID                                 : S_TEXT/UTF8
Codec ID/Info                            : UTF-8 Plain Text
Duration                                 : 52 min 1 s
Bit rate                                 : 74 b/s
Frame rate                               : 0.284 FPS
Count of elements                        : 887
Stream size                              : 28.3 KiB (0%)
Language                                 : English
Default                                  : No
Forced                                   : No

General
Unique ID                                : 188083019449895247182155491912294352112 (0x8D7F78CFADDB5E6B971752AE5A3844F0)
Complete name                            : Z:\Queer As Folk S05\Queer.as.Folk.US.S05E12.Mr.Right.Never.Broke.a.Promise.1080p.AMZN.WEB-DL.DDP5.1.x264-NTb.mkv
Format                                   : Matroska
Format version                           : Version 4
File size                                : 4.87 GiB
Duration                                 : 49 min 46 s
Overall bit rate mode                    : Variable
Overall bit rate                         : 14.0 Mb/s
Frame rate                               : 23.976 FPS
Encoded date                             : 2017-08-05 22:29:24 UTC
Writing application                      : mkvmerge v10.0.0 ('To Drown In You') 64bit
Writing library                          : libebml v1.3.4 + libmatroska v1.4.5

Video
ID                                       : 1
Format                                   : AVC
Format/Info                              : Advanced Video Codec
Format profile                           : High@L4
Format settings                          : CABAC / 4 Ref Frames
Format settings, CABAC                   : Yes
Format settings, Reference frames        : 4 frames
Codec ID                                 : V_MPEG4/ISO/AVC
Duration                                 : 49 min 46 s
Bit rate mode                            : Variable
Bit rate                                 : 13.4 Mb/s
Maximum bit rate                         : 15.0 Mb/s
Width                                    : 1 920 pixels
Height                                   : 1 080 pixels
Display aspect ratio                     : 16:9
Frame rate mode                          : Constant
Frame rate                               : 23.976 (24000/1001) FPS
Color space                              : YUV
Chroma subsampling                       : 4:2:0
Bit depth                                : 8 bits
Scan type                                : Progressive
Bits/(Pixel*Frame)                       : 0.269
Stream size                              : 4.65 GiB (95%)
Writing library                          : x264 core 148 r2623 d5b2374
Encoding settings                        : cabac=1 / ref=4 / deblock=1:-1:-1 / analyse=0x3:0x133 / me=umh / subme=9 / psy=1 / psy_rd=1.00:0.15 / mixed_ref=1 / me_range=24 / chroma_me=1 / trellis=2 / 8x8dct=1 / cqm=0 / deadzone=21,11 / fast_pskip=1 / chroma_qp_offset=-3 / threads=34 / lookahead_threads=5 / sliced_threads=0 / nr=150 / decimate=1 / interlaced=0 / bluray_compat=0 / constrained_intra=0 / bframes=8 / b_pyramid=2 / b_adapt=2 / b_bias=0 / direct=3 / weightb=1 / open_gop=0 / weightp=2 / keyint=120 / keyint_min=61 / scenecut=0 / intra_refresh=0 / rc_lookahead=120 / rc=crf / mbtree=1 / crf=18.0 / qcomp=0.60 / qpmin=0 / qpmax=69 / qpstep=4 / vbv_maxrate=15000 / vbv_bufsize=31250 / crf_max=0.0 / nal_hrd=vbr / filler=0 / ip_ratio=1.40 / aq=3:1.00
Default                                  : Yes
Forced                                   : No
Color range                              : Limited
Color primaries                          : BT.709
Transfer characteristics                 : BT.709
Matrix coefficients                      : BT.709

Audio
ID                                       : 2
Format                                   : E-AC-3
Format/Info                              : Enhanced AC-3
Commercial name                          : Dolby Digital Plus
Codec ID                                 : A_EAC3
Duration                                 : 49 min 46 s
Bit rate mode                            : Constant
Bit rate                                 : 640 kb/s
Channel(s)                               : 6 channels
Channel layout                           : L R C LFE Ls Rs
Sampling rate                            : 48.0 kHz
Frame rate                               : 31.250 FPS (1536 SPF)
Compression mode                         : Lossy
Stream size                              : 228 MiB (5%)
Language                                 : English
Service kind                             : Complete Main
Default                                  : Yes
Forced                                   : No
Dialog Normalization                     : -24 dB
compr                                    : -0.28 dB
dialnorm_Average                         : -24 dB
dialnorm_Minimum                         : -24 dB
dialnorm_Maximum                         : -24 dB

Text
ID                                       : 3
Format                                   : UTF-8
Codec ID                                 : S_TEXT/UTF8
Codec ID/Info                            : UTF-8 Plain Text
Duration                                 : 49 min 33 s
Bit rate                                 : 82 b/s
Frame rate                               : 0.360 FPS
Count of elements                        : 1070
Stream size                              : 30.0 KiB (0%)
Language                                 : English
Default                                  : No
Forced                                   : No

General
Unique ID                                : 203283405397726943507267579713768666455 (0x98EEF5B32CE539BEB62AC5B02CB43557)
Complete name                            : Z:\Queer As Folk S05\Queer.as.Folk.US.S05E13.We.Will.Survive.1080p.AMZN.WEB-DL.DDP5.1.x264-NTb.mkv
Format                                   : Matroska
Format version                           : Version 4
File size                                : 5.73 GiB
Duration                                 : 59 min 13 s
Overall bit rate mode                    : Variable
Overall bit rate                         : 13.8 Mb/s
Frame rate                               : 23.976 FPS
Encoded date                             : 2017-08-05 22:41:49 UTC
Writing application                      : mkvmerge v10.0.0 ('To Drown In You') 64bit
Writing library                          : libebml v1.3.4 + libmatroska v1.4.5

Video
ID                                       : 1
Format                                   : AVC
Format/Info                              : Advanced Video Codec
Format profile                           : High@L4
Format settings                          : CABAC / 4 Ref Frames
Format settings, CABAC                   : Yes
Format settings, Reference frames        : 4 frames
Codec ID                                 : V_MPEG4/ISO/AVC
Duration                                 : 59 min 13 s
Bit rate mode                            : Variable
Bit rate                                 : 13.2 Mb/s
Maximum bit rate                         : 15.0 Mb/s
Width                                    : 1 920 pixels
Height                                   : 1 080 pixels
Display aspect ratio                     : 16:9
Frame rate mode                          : Constant
Frame rate                               : 23.976 (24000/1001) FPS
Color space                              : YUV
Chroma subsampling                       : 4:2:0
Bit depth                                : 8 bits
Scan type                                : Progressive
Bits/(Pixel*Frame)                       : 0.266
Stream size                              : 5.46 GiB (95%)
Writing library                          : x264 core 148 r2623 d5b2374
Encoding settings                        : cabac=1 / ref=4 / deblock=1:-1:-1 / analyse=0x3:0x133 / me=umh / subme=9 / psy=1 / psy_rd=1.00:0.15 / mixed_ref=1 / me_range=24 / chroma_me=1 / trellis=2 / 8x8dct=1 / cqm=0 / deadzone=21,11 / fast_pskip=1 / chroma_qp_offset=-3 / threads=34 / lookahead_threads=5 / sliced_threads=0 / nr=150 / decimate=1 / interlaced=0 / bluray_compat=0 / constrained_intra=0 / bframes=8 / b_pyramid=2 / b_adapt=2 / b_bias=0 / direct=3 / weightb=1 / open_gop=0 / weightp=2 / keyint=120 / keyint_min=61 / scenecut=0 / intra_refresh=0 / rc_lookahead=120 / rc=crf / mbtree=1 / crf=18.0 / qcomp=0.60 / qpmin=0 / qpmax=69 / qpstep=4 / vbv_maxrate=15000 / vbv_bufsize=31250 / crf_max=0.0 / nal_hrd=vbr / filler=0 / ip_ratio=1.40 / aq=3:1.00
Default                                  : Yes
Forced                                   : No
Color range                              : Limited
Color primaries                          : BT.709
Transfer characteristics                 : BT.709
Matrix coefficients                      : BT.709

Audio
ID                                       : 2
Format                                   : E-AC-3
Format/Info                              : Enhanced AC-3
Commercial name                          : Dolby Digital Plus
Codec ID                                 : A_EAC3
Duration                                 : 59 min 13 s
Bit rate mode                            : Constant
Bit rate                                 : 640 kb/s
Channel(s)                               : 6 channels
Channel layout                           : L R C LFE Ls Rs
Sampling rate                            : 48.0 kHz
Frame rate                               : 31.250 FPS (1536 SPF)
Compression mode                         : Lossy
Stream size                              : 271 MiB (5%)
Language                                 : English
Service kind                             : Complete Main
Default                                  : Yes
Forced                                   : No
Dialog Normalization                     : -24 dB
compr                                    : -0.28 dB
dialnorm_Average                         : -24 dB
dialnorm_Minimum                         : -24 dB
dialnorm_Maximum                         : -24 dB

Text
ID                                       : 3
Format                                   : UTF-8
Codec ID                                 : S_TEXT/UTF8
Codec ID/Info                            : UTF-8 Plain Text
Duration                                 : 59 min 0 s
Bit rate                                 : 72 b/s
Frame rate                               : 0.321 FPS
Count of elements                        : 1135
Stream size                              : 31.5 KiB (0%)
Language                                 : English
Default                                  : No
Forced                                   : No

</pre>
</div></div></div>
</div><div style="text-align: left"><br>
<br>
<div style="text-align: center">
<div class="bbCodeBlock bbCodeVfcHH HiddenContent">
<div class="attribution type">Hidden Content:</div>
<blockquote>You must reply before you can see the hidden data contained here.</blockquote>
</div></div></div></div>
<div class="messageTextEndMarker">&nbsp;</div>
</blockquote>
</article>]]></description>
                <author><![CDATA[bspengeman]]></author>
                </item>

                </channel></rss>